<?xml version="1.0" encoding="utf-8"?>
<!-- Generator: Adobe Illustrator 21.0.0, SVG Export Plug-In . SVG Version: 6.00 Build 0)  -->
<svg version="1.1" id="Camada_1" xmlns="http://www.w3.org/2000/svg" xmlns:xlink="http://www.w3.org/1999/xlink" x="0px" y="0px"
	 viewBox="0 0 182 44" style="enable-background:new 0 0 182 44;" xml:space="preserve">
<style type="text/css">
	.st0{fill:#00C01E;}
	.st1{fill:#2E4165;}
</style>
<g>
	<path class="st0" d="M36.3,26.4C36.3,26.4,36.3,26.4,36.3,26.4c-0.3,0-0.5,0.2-0.6,0.4c-0.8,3-2.6,5.8-5.1,7.8
		c-1.3,1.1-2.8,1.9-4.4,2.5c-1.6,0.6-3.4,0.9-5.1,0.9c-3.3,0-6.5-1.1-9.2-3.1c-2.3-1.8-4.1-4.2-5.1-6.9l3.9,1.6
		c0.3,0.1,0.6,0,0.7-0.3c0.1-0.3,0-0.6-0.3-0.7L6,26.4c-0.1-0.1-0.3-0.1-0.4,0c0,0,0,0,0,0c-0.1,0-0.2,0-0.2,0.1
		c-0.1,0.1-0.3,0.2-0.3,0.4L2.9,32c-0.1,0.3,0,0.6,0.3,0.7c0.1,0,0.1,0,0.2,0c0.2,0,0.4-0.1,0.5-0.3l1.7-4.2
		C8,34.6,14,39.1,21.1,39.1c7.5,0,13.9-5.1,15.7-12C36.9,26.7,36.7,26.4,36.3,26.4z"/>
	<path class="st0" d="M27,33.7c0.9-0.5,3.8-2.3,4.8-5.8c1-3.7-2.2-8.6-2.2-8.6s-3.6,2.4-4.4,4.5C23.4,28.4,26.5,33,27,33.7z"/>
	<g>
		<path class="st0" d="M7.3,12.1c-0.1,0.7-0.1,1.5,0,2.2c0.5-0.9,1.1-1.8,1.7-2.7c-0.5-0.2-0.9-0.3-1.2-0.4
			C7.7,11.5,7.5,11.8,7.3,12.1z"/>
		<path class="st0" d="M6.8,15.1c-0.2-0.5-0.3-1-0.3-1.6c-0.6,1.1-1,2.2-1.4,3.4c-0.1,0.4,0.2,0.7,0.6,0.7c0,0,0,0,0,0
			c0.3,0,0.5-0.2,0.5-0.4c0.2-0.7,0.4-1.3,0.7-1.9C6.9,15.2,6.8,15.2,6.8,15.1z"/>
		<path class="st0" d="M38.7,11.3c-0.3-0.1-0.6,0-0.7,0.3l-1.7,4.2C34,9.4,27.9,4.9,20.8,4.9c-5,0-9.4,2.2-12.4,5.7
			c0.3,0.1,0.7,0.2,1.2,0.4c0.5-0.6,1.1-1.1,1.7-1.6c1.3-1.1,2.8-1.9,4.4-2.5C17.3,6.3,19.1,6,20.8,6c3.3,0,6.5,1.1,9.2,3.1
			c2.3,1.8,4.1,4.2,5.1,6.9l-3.9-1.6c-0.3-0.1-0.6,0-0.7,0.3c-0.1,0.3,0,0.6,0.3,0.7l5.2,2.2c0.1,0,0.2,0.1,0.3,0.1c0,0,0.1,0,0.1,0
			c0,0,0,0,0,0h0c0.1,0,0.2,0,0.2-0.1c0.1-0.1,0.3-0.2,0.3-0.4L39,12C39.1,11.7,39,11.4,38.7,11.3z"/>
	</g>
	<g>
		<path class="st0" d="M22.8,22.8c0.2-0.5,0.5-1,0.8-1.4c-0.2-0.5-0.4-1-0.7-1.5c-3.6-6.5-14.9-8.8-14.9-8.8s-1.7,8.2,0.1,12.1
			c4,8.9,14.6,11,16.2,11.3c0-0.1,0.1-0.2,0.1-0.3C23.1,32.1,21,27.6,22.8,22.8z"/>
	</g>
	<g>
		<path class="st1" d="M54.1,30.3h-8.9c-0.6,0-1.1-0.2-1.3-0.5c-0.3-0.3-0.4-0.7-0.4-1c0-0.5,0.3-1,0.8-1.7l7.6-9.6h-7
			c-0.5,0-0.8-0.1-1-0.4c-0.2-0.2-0.3-0.5-0.3-0.8c0-0.2,0-0.3,0.1-0.5c0.1-0.2,0.2-0.3,0.4-0.5c0.2-0.1,0.5-0.2,0.8-0.2h8.8
			c0.6,0,1,0.2,1.3,0.5c0.2,0.3,0.4,0.7,0.4,1c0,0.5-0.2,1-0.7,1.6L46.8,28h7.3c0.5,0,0.8,0.1,1,0.4c0.2,0.3,0.3,0.5,0.3,0.8
			c0,0.3-0.1,0.6-0.3,0.8C54.9,30.2,54.6,30.3,54.1,30.3z"/>
		<path class="st1" d="M66.2,23.7h-5.9V28h6.6c0.5,0,0.8,0.1,1,0.4c0.2,0.3,0.3,0.5,0.3,0.8c0,0.3-0.1,0.6-0.3,0.8
			c-0.2,0.3-0.5,0.4-1,0.4h-7.7c-1.1,0-1.6-0.5-1.6-1.6V16.8c0-1.1,0.5-1.6,1.6-1.6h7.3c0.4,0,0.6,0.1,0.9,0.2
			c0.2,0.2,0.3,0.3,0.4,0.5c0,0.2,0.1,0.3,0.1,0.5c0,0.2,0,0.3-0.1,0.5c0,0.2-0.2,0.3-0.4,0.5c-0.2,0.2-0.5,0.2-0.9,0.2h-6.2v3.8
			h5.9c0.5,0,0.8,0.1,1,0.4c0.2,0.2,0.3,0.5,0.3,0.8c0,0.2,0,0.3-0.1,0.5c0,0.1-0.2,0.3-0.4,0.4C66.8,23.6,66.5,23.7,66.2,23.7z"/>
		<path class="st1" d="M79,29.8l-3.7-5.9h-2V29c0,0.6-0.1,1-0.4,1.2c-0.3,0.2-0.6,0.3-0.9,0.3c-0.3,0-0.6-0.1-0.9-0.3
			c-0.3-0.2-0.4-0.6-0.4-1.2V16.8c0-1.1,0.5-1.6,1.6-1.6h3.7c1,0,1.9,0.1,2.7,0.4c0.8,0.3,1.5,0.7,2,1.4c0.5,0.7,0.8,1.5,0.8,2.5
			c0,1.1-0.3,2-0.9,2.7c-0.6,0.7-1.5,1.2-2.5,1.4l3.2,4.7c0.2,0.3,0.3,0.6,0.3,0.9c0,0.4-0.1,0.7-0.4,0.9c-0.2,0.2-0.6,0.4-1,0.4
			C79.7,30.5,79.3,30.3,79,29.8z M73.4,17.5v4.3h2.2c2.2,0,3.2-0.7,3.2-2.2c0-0.7-0.3-1.3-0.9-1.6c-0.6-0.3-1.3-0.5-2.1-0.5H73.4z"
			/>
		<path class="st1" d="M127,17l-3.6,12c-0.3,1-0.9,1.5-1.8,1.5c-0.8,0-1.4-0.5-1.7-1.5l-3.2-9.9h0l-3.2,9.9c-0.3,1-0.9,1.5-1.8,1.5
			c-0.8,0-1.4-0.5-1.7-1.5l-3.6-12c-0.1-0.3-0.1-0.5-0.1-0.7c0-0.4,0.1-0.7,0.4-1c0.3-0.2,0.6-0.4,1-0.4c0.7,0,1.2,0.4,1.4,1.3
			l2.8,10h0l3-9.6c0.4-1.1,0.9-1.7,1.8-1.7c0.8,0,1.4,0.6,1.8,1.7l3,9.6h0l2.9-10.1c0.2-0.8,0.7-1.2,1.4-1.2c0.4,0,0.7,0.1,0.9,0.4
			c0.3,0.2,0.4,0.6,0.4,1C127,16.6,127,16.8,127,17z"/>
		<path class="st1" d="M139.4,29.5l-1.1-2.6h-6.9l-1.1,2.6c-0.3,0.7-0.7,1-1.3,1c-0.4,0-0.7-0.1-1-0.4c-0.3-0.2-0.4-0.6-0.4-1
			c0-0.2,0.1-0.5,0.2-0.8l5.4-12.1c0.4-0.9,0.9-1.3,1.7-1.3c0.7,0,1.3,0.4,1.7,1.3l5.4,12.1c0.1,0.3,0.2,0.5,0.2,0.8
			c0,0.4-0.1,0.8-0.4,1c-0.3,0.2-0.6,0.4-1,0.4C140.2,30.5,139.7,30.2,139.4,29.5z M134.9,18.5l-2.5,6.1h5L134.9,18.5z"/>
		<path class="st1" d="M145.6,27.4c0.8,0.7,1.6,1,2.6,1c0.7,0,1.4-0.2,1.9-0.6c0.5-0.4,0.8-0.9,0.8-1.7c0-0.3,0-0.5-0.1-0.7
			c-0.1-0.2-0.2-0.4-0.4-0.6c-0.2-0.2-0.4-0.3-0.5-0.4c-0.1-0.1-0.4-0.2-0.8-0.4c-0.4-0.1-0.6-0.2-0.8-0.3c-0.2-0.1-0.5-0.2-0.9-0.3
			c-0.5-0.2-1-0.3-1.4-0.5c-0.4-0.2-0.8-0.4-1.2-0.8c-0.4-0.3-0.7-0.7-0.9-1.2c-0.2-0.5-0.3-1.1-0.3-1.8c0-1.4,0.5-2.5,1.6-3.3
			c1.1-0.8,2.4-1.1,3.9-1.1c1.4,0,2.5,0.3,3.3,1c0.4,0.3,0.7,0.7,0.7,1.1c0,0.3-0.1,0.6-0.3,0.8c-0.2,0.2-0.5,0.3-0.8,0.3
			c-0.3,0-0.6-0.1-0.9-0.3c-0.7-0.5-1.4-0.7-2-0.7c-0.7,0-1.3,0.2-1.9,0.5c-0.5,0.3-0.8,0.9-0.8,1.5c0,0.3,0.1,0.6,0.2,0.9
			c0.1,0.2,0.3,0.4,0.6,0.6c0.3,0.2,0.6,0.3,0.9,0.4c0.3,0.1,0.7,0.2,1.2,0.4c0.5,0.2,0.9,0.3,1.2,0.4c0.3,0.1,0.7,0.3,1.2,0.5
			c0.4,0.2,0.8,0.5,1.1,0.8c0.3,0.3,0.5,0.7,0.7,1.1c0.2,0.5,0.3,1,0.3,1.5c0,1.6-0.5,2.7-1.6,3.6c-1,0.8-2.4,1.2-3.9,1.2
			c-1.7,0-3.1-0.4-4.1-1.3c-0.4-0.3-0.6-0.7-0.6-1.1c0-0.3,0.1-0.6,0.4-0.9c0.2-0.2,0.5-0.4,0.9-0.4C145,27,145.3,27.2,145.6,27.4z"
			/>
		<path class="st1" d="M155.9,15.2h9.7c0.4,0,0.6,0.1,0.9,0.2c0.2,0.2,0.3,0.3,0.4,0.5c0,0.2,0.1,0.3,0.1,0.5c0,0.2,0,0.3-0.1,0.5
			c-0.1,0.2-0.2,0.3-0.4,0.5c-0.2,0.2-0.5,0.2-0.9,0.2h-3.5V29c0,0.6-0.1,1-0.4,1.2c-0.3,0.2-0.6,0.3-0.9,0.3
			c-0.3,0-0.6-0.1-0.9-0.3c-0.3-0.2-0.4-0.6-0.4-1.2V17.6h-3.5c-0.4,0-0.6-0.1-0.9-0.2c-0.2-0.2-0.3-0.3-0.4-0.5
			c0-0.2-0.1-0.3-0.1-0.5c0-0.2,0-0.3,0.1-0.5c0-0.2,0.2-0.3,0.4-0.5C155.3,15.3,155.6,15.2,155.9,15.2z"/>
		<path class="st1" d="M177.1,23.7h-5.9V28h6.6c0.5,0,0.8,0.1,1,0.4c0.2,0.3,0.3,0.5,0.3,0.8c0,0.3-0.1,0.6-0.3,0.8
			c-0.2,0.3-0.5,0.4-1,0.4h-7.7c-1.1,0-1.6-0.5-1.6-1.6V16.8c0-1.1,0.5-1.6,1.6-1.6h7.3c0.4,0,0.6,0.1,0.9,0.2
			c0.2,0.2,0.3,0.3,0.4,0.5c0,0.2,0.1,0.3,0.1,0.5c0,0.2,0,0.3-0.1,0.5c0,0.2-0.2,0.3-0.4,0.5c-0.2,0.2-0.5,0.2-0.9,0.2h-6.2v3.8
			h5.9c0.5,0,0.8,0.1,1,0.4c0.2,0.2,0.3,0.5,0.3,0.8c0,0.2,0,0.3-0.1,0.5c0,0.1-0.2,0.3-0.4,0.4C177.7,23.6,177.4,23.7,177.1,23.7z"
			/>
		<g>
			<g>
				<path class="st1" d="M85.6,22.8c0-1.4,0.5-2.5,1.4-3.4s2.1-1.3,3.6-1.3c0.4,0,0.7,0,1.1,0.1l1.9-2.2c-0.9-0.4-1.9-0.5-3-0.5
					c-2.1,0-3.8,0.7-5.2,2.1c-1.3,1.4-2,3.1-2,5.2c0,1.4,0.3,2.7,0.9,3.8l1.6-1.9C85.7,24.1,85.6,23.5,85.6,22.8z"/>
				<path class="st1" d="M95.5,22.8c0,1.4-0.5,2.5-1.4,3.4c-0.9,0.9-2.1,1.3-3.6,1.3c-0.3,0-0.6,0-0.8-0.1l-1.9,2.2
					c0.8,0.3,1.8,0.5,2.8,0.5c2.2,0,3.9-0.7,5.2-2.1c1.3-1.4,1.9-3.1,1.9-5.3c0-1.3-0.3-2.5-0.8-3.5l-1.7,1.9
					C95.5,21.6,95.5,22.2,95.5,22.8z"/>
			</g>
			<path class="st1" d="M86.2,29.4l9.9-10.9l0,0l0.7-0.8c0.5-0.5,0.7-1,0.7-1.4c0-0.4-0.1-0.7-0.3-0.9c-0.2-0.2-0.5-0.3-0.9-0.2
				c-0.4,0-0.8,0.3-1.3,0.9L85.2,27l0,0l-0.7,0.8c-0.5,0.5-0.7,1-0.7,1.4c0,0.4,0.1,0.7,0.3,0.9c0.2,0.2,0.5,0.3,0.9,0.2
				C85.3,30.3,85.7,30,86.2,29.4z"/>
		</g>
	</g>
</g>
</svg>
